<svg xmlns="http://www.w3.org/2000/svg" viewBox="0 0 204.95 185.51"><defs><style>.cls-1{fill:#009245;}.cls-2{fill:#fff;}.cls-3{fill:#141d62;}.cls-4{fill:#f7931e;}</style></defs><title>logo</title><g id="Layer_2" data-name="Layer 2"><g id="Layer_1-2" data-name="Layer 1"><path class="cls-1" d="M63.08,130.32a9.54,9.54,0,0,1-4.83,1.12,7,7,0,0,1-5-1.77,6.44,6.44,0,0,1-1.84-4.88,6.81,6.81,0,0,1,2-5.09,7.34,7.34,0,0,1,5.36-2,10.9,10.9,0,0,1,3.72.58v2.8a7.38,7.38,0,0,0-3.75-.89,4,4,0,0,0-3,1.21,5.15,5.15,0,0,0-.12,6.38,3.7,3.7,0,0,0,2.83,1.12,3.93,3.93,0,0,0,1.7-.31V126H57.44v-2.38h5.64Z"/><path class="cls-1" d="M71.54,124.38a2.54,2.54,0,0,0-1.23-.29,1.77,1.77,0,0,0-1.49.7,3,3,0,0,0-.54,1.9v4.52H65.37v-9.46h2.92v1.76h0a2.53,2.53,0,0,1,2.5-1.92,1.87,1.87,0,0,1,.72.11Z"/><path class="cls-1" d="M81.41,127.31H75.23q.15,2.06,2.6,2.06a5.07,5.07,0,0,0,2.75-.74v2.11a7.22,7.22,0,0,1-3.41.7,4.41,4.41,0,0,1-4.83-4.82,5.06,5.06,0,0,1,1.37-3.73,4.55,4.55,0,0,1,3.36-1.38,4.14,4.14,0,0,1,3.2,1.23,4.73,4.73,0,0,1,1.13,3.34Zm-2.71-1.79q0-2-1.65-2a1.57,1.57,0,0,0-1.22.58,2.65,2.65,0,0,0-.62,1.45Z"/><path class="cls-1" d="M91.65,127.31H85.47q.15,2.06,2.6,2.06a5.07,5.07,0,0,0,2.75-.74v2.11a7.22,7.22,0,0,1-3.41.7,4.41,4.41,0,0,1-4.83-4.82,5.06,5.06,0,0,1,1.37-3.73,4.55,4.55,0,0,1,3.36-1.38,4.14,4.14,0,0,1,3.2,1.23,4.73,4.73,0,0,1,1.13,3.34Zm-2.71-1.79q0-2-1.65-2a1.57,1.57,0,0,0-1.22.58,2.65,2.65,0,0,0-.62,1.45Z"/><path class="cls-1" d="M102.53,131.21H99.62V126q0-2.2-1.57-2.2a1.56,1.56,0,0,0-1.25.58,2.22,2.22,0,0,0-.49,1.48v5.4H93.39v-9.46h2.92v1.5h0a3.35,3.35,0,0,1,3-1.73q3.14,0,3.14,3.9Z"/><path class="cls-1" d="M122.47,118,119,131.21h-3.31l-2.2-8.5a7.06,7.06,0,0,1-.21-1.49h0a9.07,9.07,0,0,1-.24,1.49l-2.26,8.5h-3.45L103.78,118H107l1.87,8.83a10.57,10.57,0,0,1,.18,1.52h.06a7.36,7.36,0,0,1,.27-1.55l2.4-8.79H115l2.17,8.9a10.9,10.9,0,0,1,.21,1.42h0a9.49,9.49,0,0,1,.19-1.48l1.83-8.85Z"/><path class="cls-1" d="M131.74,131.21H129v-1.36h0a3.09,3.09,0,0,1-2.82,1.59,3,3,0,0,1-2.17-.78,2.8,2.8,0,0,1-.79-2.08q0-2.76,3.26-3.18l2.57-.34q0-1.55-1.68-1.55a5.74,5.74,0,0,0-3.22,1v-2.2a7.26,7.26,0,0,1,1.67-.55,8.77,8.77,0,0,1,1.93-.24q4,0,4,4ZM129,127.36v-.64l-1.72.22q-1.42.18-1.42,1.28a1.06,1.06,0,0,0,.35.82,1.33,1.33,0,0,0,.94.32,1.73,1.73,0,0,0,1.34-.57A2.05,2.05,0,0,0,129,127.36Z"/><path class="cls-1" d="M143.06,121.74l-3.52,9.46h-3.33l-3.35-9.46H136l1.65,5.83a8.55,8.55,0,0,1,.32,1.68h0a9.53,9.53,0,0,1,.34-1.63l1.68-5.89Z"/><path class="cls-1" d="M152.81,127.31h-6.17q.15,2.06,2.6,2.06a5.07,5.07,0,0,0,2.75-.74v2.11a7.22,7.22,0,0,1-3.41.7,4.41,4.41,0,0,1-4.83-4.82,5.06,5.06,0,0,1,1.37-3.73,4.56,4.56,0,0,1,3.37-1.38,4.14,4.14,0,0,1,3.2,1.23,4.73,4.73,0,0,1,1.13,3.34Zm-2.71-1.79q0-2-1.65-2a1.57,1.57,0,0,0-1.22.58,2.65,2.65,0,0,0-.62,1.45Z"/><path class="cls-2" d="M49.52,183.57h-.57l-.71-1.9a4.62,4.62,0,0,0-.23-.51,1.86,1.86,0,0,0-.3-.42,1.28,1.28,0,0,0-.39-.28,1.18,1.18,0,0,0-.51-.1H44.3v3.22h-.52v-7.14H47a4.62,4.62,0,0,1,.87.08,2.15,2.15,0,0,1,.75.29,1.5,1.5,0,0,1,.53.58,2,2,0,0,1,.2.94,2.44,2.44,0,0,1-.09.67,1.72,1.72,0,0,1-.27.55,1.63,1.63,0,0,1-.46.42,2,2,0,0,1-.65.25,2.65,2.65,0,0,1,.33.3,1.8,1.8,0,0,1,.23.31,2.5,2.5,0,0,1,.17.36l.17.45Zm-5.21-3.75h2.48a4.5,4.5,0,0,0,.91-.08,1.59,1.59,0,0,0,.62-.26,1.07,1.07,0,0,0,.36-.47,1.87,1.87,0,0,0,.12-.71,1.18,1.18,0,0,0-.47-1.05,2.5,2.5,0,0,0-1.39-.32H44.3Z"/><path class="cls-2" d="M56.25,183.7a2.48,2.48,0,0,1-1-.18,2.05,2.05,0,0,1-.74-.52,2.38,2.38,0,0,1-.48-.84,3.84,3.84,0,0,1,0-2.24,2.39,2.39,0,0,1,.46-.83,2,2,0,0,1,.71-.53,2.24,2.24,0,0,1,.91-.18,2.32,2.32,0,0,1,.93.18,2,2,0,0,1,.71.53,2.38,2.38,0,0,1,.45.83,3.68,3.68,0,0,1,.16,1.11v.12h-4a3,3,0,0,0,.19.89,1.92,1.92,0,0,0,.39.63,1.56,1.56,0,0,0,.56.38,1.86,1.86,0,0,0,.69.12,2.22,2.22,0,0,0,.52-.06,1.69,1.69,0,0,0,.47-.19,1.25,1.25,0,0,0,.36-.31.81.81,0,0,0,.17-.42h.52a1.75,1.75,0,0,1-.7,1.11,2,2,0,0,1-.61.29A2.6,2.6,0,0,1,56.25,183.7Zm1.62-3.07a2.16,2.16,0,0,0-.59-1.3,1.59,1.59,0,0,0-1.13-.43,1.81,1.81,0,0,0-.62.1,1.46,1.46,0,0,0-.51.32,1.79,1.79,0,0,0-.38.54,2.74,2.74,0,0,0-.22.76Z"/><path class="cls-2" d="M66.29,182.92a3.67,3.67,0,0,1-.52.39,2.81,2.81,0,0,1-.5.24,2.37,2.37,0,0,1-.49.12,3.7,3.7,0,0,1-.49,0,1.85,1.85,0,0,1-.62-.1,1.47,1.47,0,0,1-.5-.29,1.34,1.34,0,0,1-.33-.45,1.39,1.39,0,0,1-.12-.58,1.52,1.52,0,0,1,.74-1.35,4.11,4.11,0,0,1,2.22-.48h.6a4.49,4.49,0,0,0,0-.61,1.1,1.1,0,0,0-.18-.49.94.94,0,0,0-.42-.32,2.62,2.62,0,0,0-1.83.1.9.9,0,0,0-.42.67h-.52a1.43,1.43,0,0,1,.56-1.07,2.44,2.44,0,0,1,1.44-.35,2.7,2.7,0,0,1,.9.13,1.5,1.5,0,0,1,.6.38,1.46,1.46,0,0,1,.34.59,2.75,2.75,0,0,1,.1.79v3.3h-.52Zm0-2H65.5a3.44,3.44,0,0,0-1.69.33,1,1,0,0,0-.56.93.81.81,0,0,0,.35.7,1.64,1.64,0,0,0,1,.25,1.66,1.66,0,0,0,.52-.08,2.35,2.35,0,0,0,.47-.21,2.81,2.81,0,0,0,.41-.29,3.77,3.77,0,0,0,.32-.31Z"/><path class="cls-2" d="M75.06,182.87a2.73,2.73,0,0,1-.46.44,2.15,2.15,0,0,1-.44.25,1.63,1.63,0,0,1-.41.11l-.38,0a1.81,1.81,0,0,1-.84-.19,1.74,1.74,0,0,1-.61-.53,2.45,2.45,0,0,1-.37-.83,4.22,4.22,0,0,1-.13-1.08,3.83,3.83,0,0,1,.15-1.12,2.63,2.63,0,0,1,.42-.85,1.87,1.87,0,0,1,.64-.54,1.75,1.75,0,0,1,.79-.19l.37,0a2,2,0,0,1,.39.08,2.08,2.08,0,0,1,.42.19,2.7,2.7,0,0,1,.45.33v-2.58h.52v7.14h-.52Zm0-3.24a2.55,2.55,0,0,0-.73-.55,1.93,1.93,0,0,0-.84-.18,1.47,1.47,0,0,0-.64.13,1.28,1.28,0,0,0-.49.4,2,2,0,0,0-.31.68,3.67,3.67,0,0,0-.11,1,2.6,2.6,0,0,0,.4,1.57,1.3,1.3,0,0,0,1.11.54,1.53,1.53,0,0,0,.86-.26,3,3,0,0,0,.76-.77Z"/><path class="cls-2" d="M84.29,178.51l-1.84,5.15a8.19,8.19,0,0,1-.34.8,2.84,2.84,0,0,1-.37.58,1.4,1.4,0,0,1-.45.35,1.25,1.25,0,0,1-.54.12h-.2l-.2,0v-.56h.23a1.07,1.07,0,0,0,.77-.31,2.59,2.59,0,0,0,.56-1L80,178.51h.57l1.65,4.41,1.51-4.41Z"/><path class="cls-2" d="M99.4,183.61l-.22,0H99a1.32,1.32,0,0,1-.54-.09.67.67,0,0,1-.31-.28,1.23,1.23,0,0,1-.14-.47,5.93,5.93,0,0,1,0-.66V179h-.65v-.52h.65v-1.33h.52v1.33h.83V179h-.83v3.14a2.18,2.18,0,0,0,0,.5.66.66,0,0,0,.14.29.42.42,0,0,0,.23.13,1.42,1.42,0,0,0,.3,0h.24Z"/><path class="cls-2" d="M105.67,178.38a2.33,2.33,0,0,1,.93.18,1.91,1.91,0,0,1,.71.52,2.36,2.36,0,0,1,.45.84,4,4,0,0,1,0,2.24,2.41,2.41,0,0,1-.45.84,1.94,1.94,0,0,1-.71.52,2.5,2.5,0,0,1-1.85,0A1.9,1.9,0,0,1,104,183a2.44,2.44,0,0,1-.46-.84,4,4,0,0,1,0-2.25,2.37,2.37,0,0,1,.45-.83,1.93,1.93,0,0,1,.71-.52A2.31,2.31,0,0,1,105.67,178.38Zm0,4.8a1.79,1.79,0,0,0,.7-.13,1.43,1.43,0,0,0,.54-.4,1.94,1.94,0,0,0,.36-.67,3.49,3.49,0,0,0,0-1.87,1.87,1.87,0,0,0-.36-.67,1.47,1.47,0,0,0-.54-.4,1.92,1.92,0,0,0-1.41,0,1.47,1.47,0,0,0-.54.4,1.84,1.84,0,0,0-.35.67,3.57,3.57,0,0,0,0,1.87,1.91,1.91,0,0,0,.35.67,1.43,1.43,0,0,0,.54.4A1.8,1.8,0,0,0,105.67,183.18Z"/><path class="cls-2" d="M123.25,183.7q-1.86,0-2-1.49h.53a1,1,0,0,0,.42.71,1.85,1.85,0,0,0,1.07.26,2.22,2.22,0,0,0,.61-.08,1.35,1.35,0,0,0,.43-.2.82.82,0,0,0,.26-.3.86.86,0,0,0,.08-.38.81.81,0,0,0-.07-.35.68.68,0,0,0-.25-.26,2.28,2.28,0,0,0-.49-.22q-.31-.11-.79-.23c-.27-.07-.52-.14-.73-.22a2,2,0,0,1-.54-.27,1.07,1.07,0,0,1-.33-.4,1.33,1.33,0,0,1-.11-.58,1.16,1.16,0,0,1,.13-.54,1.19,1.19,0,0,1,.36-.41,1.67,1.67,0,0,1,.55-.26,2.65,2.65,0,0,1,.72-.09,2.52,2.52,0,0,1,1.37.3,1.18,1.18,0,0,1,.52,1h-.53a.72.72,0,0,0-.36-.56,1.89,1.89,0,0,0-.92-.18,2.47,2.47,0,0,0-.53.05,1.42,1.42,0,0,0-.42.15.78.78,0,0,0-.27.25.63.63,0,0,0-.1.35.71.71,0,0,0,0,.23.55.55,0,0,0,.2.24,2,2,0,0,0,.48.25,7,7,0,0,0,.87.26,7.53,7.53,0,0,1,.76.23,2,2,0,0,1,.54.29,1.07,1.07,0,0,1,.32.39,1.2,1.2,0,0,1,.1.52,1.46,1.46,0,0,1-.13.62,1.43,1.43,0,0,1-.38.5,1.82,1.82,0,0,1-.6.33A2.43,2.43,0,0,1,123.25,183.7Z"/><path class="cls-2" d="M131.79,183.7a2.48,2.48,0,0,1-1-.18,2.06,2.06,0,0,1-.74-.52,2.39,2.39,0,0,1-.48-.84,3.85,3.85,0,0,1,0-2.24,2.38,2.38,0,0,1,.46-.83,2,2,0,0,1,.71-.53,2.24,2.24,0,0,1,.91-.18,2.32,2.32,0,0,1,.93.18,2,2,0,0,1,.71.53,2.36,2.36,0,0,1,.45.83,3.66,3.66,0,0,1,.16,1.11v.12h-4a3,3,0,0,0,.19.89,1.91,1.91,0,0,0,.39.63,1.55,1.55,0,0,0,.56.38,1.86,1.86,0,0,0,.69.12,2.21,2.21,0,0,0,.52-.06,1.7,1.7,0,0,0,.47-.19,1.26,1.26,0,0,0,.36-.31.81.81,0,0,0,.17-.42h.51a1.75,1.75,0,0,1-.7,1.11,2,2,0,0,1-.61.29A2.59,2.59,0,0,1,131.79,183.7Zm1.62-3.07a2.16,2.16,0,0,0-.59-1.3,1.59,1.59,0,0,0-1.13-.43,1.8,1.8,0,0,0-.62.1,1.47,1.47,0,0,0-.51.32,1.8,1.8,0,0,0-.38.54,2.72,2.72,0,0,0-.22.76Z"/><path class="cls-2" d="M140.84,178.92h-.35a1.07,1.07,0,0,0-.43.09,1.91,1.91,0,0,0-.4.24,2.52,2.52,0,0,0-.35.33,2.63,2.63,0,0,0-.28.38v3.62h-.52v-5.06H139v.7a2.73,2.73,0,0,1,.44-.42,2.23,2.23,0,0,1,.42-.25,1.54,1.54,0,0,1,.39-.12l.35,0h.2Z"/><path class="cls-2" d="M148.85,178.51l-1.92,5.06h-.47l-1.92-5.06h.53l1.62,4.34,1.63-4.34Z"/><path class="cls-2" d="M155.26,183.7a2.48,2.48,0,0,1-1-.18,2.06,2.06,0,0,1-.74-.52,2.39,2.39,0,0,1-.48-.84,3.85,3.85,0,0,1,0-2.24,2.38,2.38,0,0,1,.46-.83,2,2,0,0,1,.71-.53,2.24,2.24,0,0,1,.91-.18,2.32,2.32,0,0,1,.93.18,2,2,0,0,1,.71.53,2.36,2.36,0,0,1,.45.83,3.66,3.66,0,0,1,.16,1.11v.12h-4a3,3,0,0,0,.19.89,1.91,1.91,0,0,0,.39.63,1.55,1.55,0,0,0,.56.38,1.86,1.86,0,0,0,.69.12,2.21,2.21,0,0,0,.52-.06,1.7,1.7,0,0,0,.47-.19,1.26,1.26,0,0,0,.36-.31.81.81,0,0,0,.17-.42h.51a1.75,1.75,0,0,1-.7,1.11,2,2,0,0,1-.61.29A2.59,2.59,0,0,1,155.26,183.7Zm1.62-3.07a2.16,2.16,0,0,0-.59-1.3,1.59,1.59,0,0,0-1.13-.43,1.8,1.8,0,0,0-.62.1,1.47,1.47,0,0,0-.51.32,1.8,1.8,0,0,0-.38.54,2.72,2.72,0,0,0-.22.76Z"/><path class="cls-3" d="M58.06,49.74A35.29,35.29,0,0,0,93.32,85a34.79,34.79,0,0,0,12.28-2.22V97.94A49.75,49.75,0,1,1,118,6.59l-9.07,11.55a35.24,35.24,0,0,0-50.88,31.6Z"/><path class="cls-1" d="M140.23,1.74l-7.09,9A55.55,55.55,0,0,1,149,47.67l11.4,1.07A66.91,66.91,0,0,0,140.23,1.74Z"/><path class="cls-1" d="M129.39,15.54l-9.07,11.54a35.11,35.11,0,0,1,8,18.65L143,47.11A49.55,49.55,0,0,0,129.39,15.54Z"/><circle class="cls-1" cx="112.84" cy="41.26" r="8.47"/><path class="cls-4" d="M109.6,97.94h14.47V61.63a7.5,7.5,0,0,0-7.5-7.51H85.22A7.23,7.23,0,0,0,78,61.58a7.44,7.44,0,0,0,7.54,7H109.6Z"/><path class="cls-3" d="M10.54,149.13H6.76V160h-3V149.13H0V146.7H10.54Z"/><path class="cls-3" d="M20.54,156.06H14.36q.15,2.06,2.6,2.06a5.07,5.07,0,0,0,2.75-.74v2.11a7.21,7.21,0,0,1-3.41.7,4.8,4.8,0,0,1-3.56-1.27,4.8,4.8,0,0,1-1.27-3.54,5.07,5.07,0,0,1,1.37-3.73,4.56,4.56,0,0,1,3.36-1.38,4.14,4.14,0,0,1,3.2,1.23,4.73,4.73,0,0,1,1.13,3.34Zm-2.71-1.79q0-2-1.65-2a1.57,1.57,0,0,0-1.22.58,2.65,2.65,0,0,0-.62,1.45Z"/><path class="cls-3" d="M25.2,160H22.28v-14H25.2Z"/><path class="cls-3" d="M36.16,156.06H30q.15,2.06,2.6,2.06a5.07,5.07,0,0,0,2.75-.74v2.11a7.21,7.21,0,0,1-3.41.7,4.41,4.41,0,0,1-4.83-4.82,5.07,5.07,0,0,1,1.37-3.73,4.56,4.56,0,0,1,3.36-1.38,4.14,4.14,0,0,1,3.2,1.23,4.73,4.73,0,0,1,1.13,3.34Zm-2.71-1.79q0-2-1.65-2a1.57,1.57,0,0,0-1.22.58,2.65,2.65,0,0,0-.62,1.45Z"/><path class="cls-3" d="M45.07,159.61a5.78,5.78,0,0,1-2.86.57,4.83,4.83,0,0,1-3.53-1.32,4.56,4.56,0,0,1-1.35-3.41,5,5,0,0,1,1.45-3.8,5.35,5.35,0,0,1,3.87-1.39,5,5,0,0,1,2.42.44v2.48a3.33,3.33,0,0,0-2-.68,2.69,2.69,0,0,0-2,.73,2.74,2.74,0,0,0-.73,2,2.69,2.69,0,0,0,.7,2,2.58,2.58,0,0,0,1.93.72,3.85,3.85,0,0,0,2.14-.68Z"/><path class="cls-3" d="M51.5,160.19a5.09,5.09,0,0,1-3.72-1.33,5.49,5.49,0,0,1,.05-7.27,5.31,5.31,0,0,1,3.8-1.33,5,5,0,0,1,3.7,1.33,4.72,4.72,0,0,1,1.34,3.51,5,5,0,0,1-1.38,3.73A5.14,5.14,0,0,1,51.5,160.19Zm.07-7.69a2,2,0,0,0-1.61.71,3.14,3.14,0,0,0-.57,2q0,2.73,2.2,2.73t2.1-2.8Q53.69,152.5,51.57,152.5Z"/><path class="cls-3" d="M73.59,160H70.68v-5.4q0-2.06-1.52-2.06a1.39,1.39,0,0,0-1.17.62,2.54,2.54,0,0,0-.45,1.54V160H64.61V154.5q0-2-1.49-2a1.43,1.43,0,0,0-1.2.59,2.6,2.6,0,0,0-.45,1.61V160H58.56v-9.46h2.92V152h0a3.58,3.58,0,0,1,3.06-1.71A2.73,2.73,0,0,1,67.32,152a3.5,3.5,0,0,1,3.18-1.77q3.09,0,3.09,3.81Z"/><path class="cls-3" d="M93.56,160.17a3.28,3.28,0,0,1-.93-.13,4,4,0,0,1-.83-.35,4.73,4.73,0,0,1-.74-.52,7.72,7.72,0,0,1-.67-.64,7.89,7.89,0,0,1-.82.57,6.73,6.73,0,0,1-1.09.53,8.53,8.53,0,0,1-1.34.39,7.64,7.64,0,0,1-1.56.15,7.39,7.39,0,0,1-2-.26,4.61,4.61,0,0,1-1.59-.77,3.6,3.6,0,0,1-1-1.27,3.92,3.92,0,0,1-.37-1.76,3.33,3.33,0,0,1,.28-1.4,3.77,3.77,0,0,1,.73-1.08,4.79,4.79,0,0,1,1-.79,7.69,7.69,0,0,1,1.17-.55,6.22,6.22,0,0,1-.58-.51,4.15,4.15,0,0,1-.52-.64,3.35,3.35,0,0,1-.37-.75,2.56,2.56,0,0,1-.14-.86,2.67,2.67,0,0,1,1.12-2.25,3.87,3.87,0,0,1,1.27-.59,6.12,6.12,0,0,1,1.63-.2,5.39,5.39,0,0,1,1.56.21,3.9,3.9,0,0,1,1.22.59,2.68,2.68,0,0,1,.79.91,2.49,2.49,0,0,1,.28,1.17,2.73,2.73,0,0,1-.61,1.78,4.38,4.38,0,0,1-1.73,1.22,7.16,7.16,0,0,1,.85.46,7.05,7.05,0,0,1,.79.59,7.59,7.59,0,0,1,.76.75,8.88,8.88,0,0,1,.73,1,6.1,6.1,0,0,0,1.09-2,7.64,7.64,0,0,0,.33-2.24,5.27,5.27,0,0,0,0-.67,3.21,3.21,0,0,0-.13-.6h2.49a3.62,3.62,0,0,1,.15.57,4.07,4.07,0,0,1,0,.66,8,8,0,0,1-.19,1.75,8.64,8.64,0,0,1-1.36,3.1A10.57,10.57,0,0,1,92.12,157a3.71,3.71,0,0,0,.93.73,1.94,1.94,0,0,0,.91.25,4.42,4.42,0,0,0,.91-.1,3.18,3.18,0,0,0,.8-.27v2.2a5.57,5.57,0,0,1-1,.3A5.69,5.69,0,0,1,93.56,160.17ZM85.73,158a4.78,4.78,0,0,0,1-.11,5.5,5.5,0,0,0,.91-.28,5.16,5.16,0,0,0,.79-.41,6.59,6.59,0,0,0,.67-.48,9.57,9.57,0,0,0-.93-1.25,8,8,0,0,0-.92-.88,6.32,6.32,0,0,0-.9-.62q-.45-.25-.9-.45a6.71,6.71,0,0,0-.73.41,3.05,3.05,0,0,0-.61.53,2.45,2.45,0,0,0-.43.68,2.26,2.26,0,0,0-.16.88,2,2,0,0,0,.16.8,1.76,1.76,0,0,0,.45.62,2.08,2.08,0,0,0,.69.4A2.64,2.64,0,0,0,85.73,158Zm1.71-8.39a1.1,1.1,0,0,0-.1-.48,1,1,0,0,0-.28-.36,1.35,1.35,0,0,0-.4-.22,1.42,1.42,0,0,0-.47-.08,1.63,1.63,0,0,0-.56.09,1.5,1.5,0,0,0-.44.25,1.07,1.07,0,0,0-.29.37,1.09,1.09,0,0,0-.1.47,1.56,1.56,0,0,0,.32,1,2.51,2.51,0,0,0,.8.7,4.33,4.33,0,0,0,.58-.26,2.15,2.15,0,0,0,.48-.35,1.6,1.6,0,0,0,.33-.47A1.45,1.45,0,0,0,87.44,149.57Z"/><path class="cls-3" d="M112,149.13h-3.78V160h-3V149.13h-3.76V146.7H112Z"/><path class="cls-3" d="M122,156.06h-6.17q.15,2.06,2.6,2.06a5.07,5.07,0,0,0,2.75-.74v2.11a7.21,7.21,0,0,1-3.41.7,4.41,4.41,0,0,1-4.83-4.82,5.07,5.07,0,0,1,1.37-3.73,4.56,4.56,0,0,1,3.36-1.38,4.14,4.14,0,0,1,3.2,1.23,4.73,4.73,0,0,1,1.13,3.34Zm-2.71-1.79q0-2-1.65-2a1.57,1.57,0,0,0-1.22.58,2.65,2.65,0,0,0-.62,1.45Z"/><path class="cls-3" d="M130.93,159.61a5.78,5.78,0,0,1-2.86.57,4.83,4.83,0,0,1-3.53-1.32,4.56,4.56,0,0,1-1.35-3.41,5,5,0,0,1,1.45-3.8,5.35,5.35,0,0,1,3.87-1.39,5,5,0,0,1,2.42.44v2.48a3.33,3.33,0,0,0-2-.68,2.69,2.69,0,0,0-2,.73,2.74,2.74,0,0,0-.73,2,2.69,2.69,0,0,0,.7,2,2.58,2.58,0,0,0,1.93.72,3.85,3.85,0,0,0,2.14-.68Z"/><path class="cls-3" d="M141.93,160H139v-5.38q0-2.08-1.52-2.08a1.55,1.55,0,0,0-1.26.58,2.24,2.24,0,0,0-.48,1.48V160h-2.92v-14h2.92v6h0a3.32,3.32,0,0,1,2.91-1.64q3.22,0,3.22,3.88Z"/><path class="cls-3" d="M153.39,160h-2.91V154.7q0-2.2-1.57-2.2a1.56,1.56,0,0,0-1.25.58,2.22,2.22,0,0,0-.49,1.48V160h-2.92v-9.46h2.92V152h0a3.35,3.35,0,0,1,3-1.73q3.14,0,3.14,3.9Z"/><path class="cls-3" d="M160.21,160.19a5.09,5.09,0,0,1-3.72-1.33,5.49,5.49,0,0,1,.05-7.27,5.31,5.31,0,0,1,3.8-1.33,5,5,0,0,1,3.7,1.33,4.72,4.72,0,0,1,1.34,3.51,5,5,0,0,1-1.38,3.73A5.14,5.14,0,0,1,160.21,160.19Zm.07-7.69a2,2,0,0,0-1.61.71,3.14,3.14,0,0,0-.57,2q0,2.73,2.2,2.73t2.1-2.8Q162.4,152.5,160.28,152.5Z"/><path class="cls-3" d="M170.19,160h-2.92v-14h2.92Z"/><path class="cls-3" d="M177.16,160.19a5.09,5.09,0,0,1-3.72-1.33,5.49,5.49,0,0,1,.05-7.27,5.31,5.31,0,0,1,3.8-1.33,5,5,0,0,1,3.7,1.33,4.72,4.72,0,0,1,1.34,3.51,5,5,0,0,1-1.38,3.73A5.14,5.14,0,0,1,177.16,160.19Zm.07-7.69a2,2,0,0,0-1.61.71,3.14,3.14,0,0,0-.57,2q0,2.73,2.2,2.73t2.1-2.8Q179.35,152.5,177.23,152.5Z"/><path class="cls-3" d="M193.5,158.88A5.35,5.35,0,0,1,192,163a6.18,6.18,0,0,1-4.42,1.45,7,7,0,0,1-3-.55V161.4a5.81,5.81,0,0,0,2.95.85,3.18,3.18,0,0,0,2.29-.78,2.81,2.81,0,0,0,.81-2.12v-.75h0a3.26,3.26,0,0,1-2.95,1.59,3.55,3.55,0,0,1-2.87-1.28,5.17,5.17,0,0,1-1.06-3.42,5.76,5.76,0,0,1,1.18-3.82,3.86,3.86,0,0,1,3.12-1.41,2.87,2.87,0,0,1,2.59,1.33h0v-1.1h2.92Zm-2.88-3.47v-.75a2.3,2.3,0,0,0-.53-1.53,1.72,1.72,0,0,0-1.38-.63,1.78,1.78,0,0,0-1.52.76,3.56,3.56,0,0,0-.55,2.13,3,3,0,0,0,.53,1.87,1.72,1.72,0,0,0,1.44.69,1.79,1.79,0,0,0,1.46-.7A2.86,2.86,0,0,0,190.62,155.41Z"/><path class="cls-3" d="M205,150.49l-3.85,10.22q-1.39,3.69-4.18,3.69a5.36,5.36,0,0,1-1.75-.24v-2.33a2.45,2.45,0,0,0,1.27.34,1.58,1.58,0,0,0,1.57-1.06l.5-1.17-3.85-9.45h3.24l1.77,5.76a7.54,7.54,0,0,1,.26,1.27h0a8.86,8.86,0,0,1,.31-1.25l1.78-5.78Z"/></g></g></svg>